<svg xmlns="http://www.w3.org/2000/svg" viewBox="0 0 1280 340" width="1280" height="340">
  <defs>
    <linearGradient id="dbanner-bg" x1="0%" y1="0%" x2="100%" y2="100%">
      <stop offset="0%" stop-color="#220817"/>
      <stop offset="100%" stop-color="#1A0610"/>
    </linearGradient>
    <linearGradient id="dbanner-arch" x1="0%" y1="0%" x2="100%" y2="0%">
      <stop offset="0%" stop-color="#A45A84"/>
      <stop offset="50%" stop-color="#D6A3BF"/>
      <stop offset="100%" stop-color="#5FA3BA"/>
    </linearGradient>
  </defs>

  <rect width="1280" height="340" rx="16" fill="url(#dbanner-bg)"/>

  <line x1="310" y1="75" x2="310" y2="265" stroke="#7A2A57" stroke-width="1" opacity="0.3"/>

  <path d="M 175.0 142.8 C 166.3 167.6 137.5 199.5 117.2 229.8" stroke="#A45A84" stroke-width="5.0" fill="none" stroke-linecap="round" opacity="0.8"/>
  <path d="M 175.0 142.8 C 175.0 167.6 175.0 199.5 175.0 229.8" stroke="#7A2A57" stroke-width="4.1" fill="none" stroke-linecap="round" opacity="0.8"/>
  <path d="M 175.0 142.8 C 183.7 167.6 212.5 199.5 232.8 229.8" stroke="#5FA3BA" stroke-width="5.0" fill="none" stroke-linecap="round" opacity="0.8"/>
  <path d="M 132.1 147.2
           L 132.1 117.0
           A 42.9 42.9 0 0 1 217.9 117.0
           L 217.9 147.2"
        stroke="url(#dbanner-arch)" stroke-width="7.2" fill="none"
        stroke-linecap="round" stroke-linejoin="round"/>

  <path d="M284 155Q284 115 299.0 87.5Q314 60 351 60H357Q372 60 372 45V15Q372 0 357 0H50Q35 0 35 15V45Q35 60 50 60H57Q95 60 109.5 87.5Q124 115 124 155V595Q124 635 109.5 662.5Q95 690 57 690H50Q35 690 35 705V735Q35 750 50 750H357Q372 750 372 735V705Q372 690 357 690H351Q314 690 299.0 662.5Q284 635 284 595Z" transform="translate(360.00,155.00) scale(0.082000,-0.082000)" fill="#F3D8E6"/>
  <path d="M231 395Q258 453 306.0 483.0Q354 513 407 513Q454 513 487.0 487.0Q520 461 520 410Q520 388 516.0 371.0Q512 354 494 346L400 308Q394 306 391 306Q382 306 382 315Q382 318 384 324Q390 338 391.5 351.0Q393 364 393 374Q393 401 379.5 413.5Q366 426 346 426Q323 426 303.0 412.0Q283 398 268.0 378.0Q253 358 246 339V155Q246 115 264.0 87.5Q282 60 319 60H321Q336 60 336 45V15Q336 0 321 0H30Q15 0 15 15V45Q15 60 30 60H32Q69 60 87.0 87.5Q105 115 105 155V281Q105 308 101.5 333.0Q98 358 86.0 375.5Q74 393 46 396Q34 397 34 409V443Q34 453 49 456Q120 467 173.5 491.0Q227 515 246 529Q249 531 251 531H253Q255 531 255 529Q255 528 252.5 514.0Q250 500 246.5 478.5Q243 457 238.5 434.5Q234 412 231 395Z" transform="translate(398.37,155.00) scale(0.082000,-0.082000)" fill="#F3D8E6"/>
  <path d="M317 60Q332 60 332 45V15Q332 0 315 0H32Q15 0 15 15V45Q15 60 30 60H32Q69 60 86.5 87.5Q104 115 104 155V261Q104 284 100.5 307.0Q97 330 85.0 347.0Q73 364 45 367Q33 368 33 380V414Q33 420 37.0 422.5Q41 425 48 427Q127 453 169.5 480.5Q212 508 232 529Q234 531 236 531H239Q241 531 241 529V156Q241 116 259.0 88.0Q277 60 314 60ZM174 740Q200 740 225 715Q250 690 250 665Q250 640 225 615Q200 590 174 590Q150 590 124 615Q99 639 99 665Q99 690 124 715Q149 740 174 740Z" transform="translate(446.83,155.00) scale(0.082000,-0.082000)" fill="#F3D8E6"/>
  <path d="M452 345Q446 342 442 342Q435 342 429 349Q384 406 335.0 429.0Q286 452 250 452Q224 452 202.0 441.0Q180 430 180 401Q180 379 196.5 364.5Q213 350 239.0 341.0Q265 332 292 325Q331 316 370.5 304.0Q410 292 443.0 272.5Q476 253 496.5 224.0Q517 195 517 151Q517 104 491.5 67.0Q466 30 419.0 8.5Q372 -13 307 -13Q276 -13 246.5 -5.5Q217 2 191 14Q185 17 182 17Q175 17 175 10Q175 8 177 2Q179 -4 179 -6Q179 -14 167 -14H131Q120 -14 114 -4L28 157Q25 163 25 166Q25 173 33 178L64 196Q70 199 73 199Q79 199 84 190Q133 117 191.5 86.0Q250 55 311 55Q407 55 407 112Q407 138 383.5 155.0Q360 172 325.5 183.0Q291 194 256 202Q192 218 154.0 238.5Q116 259 97.0 282.5Q78 306 71.5 329.5Q65 353 65 375Q65 435 111.0 474.0Q157 513 236 513Q283 513 319.0 500.5Q355 488 369 480Q373 478 375 478Q378 478 378 482Q378 485 375 494Q374 499 373.5 501.5Q373 504 373 506Q373 516 386 516H412Q425 516 429 505L479 378Q482 372 482 368Q482 361 474 357Z" transform="translate(480.29,155.00) scale(0.082000,-0.082000)" fill="#F3D8E6"/>
  <path d="M99 0V73H258V627H99V700H501V627H342V73H501V0Z" transform="translate(366.00,198.00) scale(0.016000,-0.016000)" fill="#A45A84"/>
  <path d="M87 0V700H171V76H526V0Z" transform="translate(376.80,198.00) scale(0.016000,-0.016000)" fill="#A45A84"/>
  <path d="M82 0V700H297Q378 700 430.5 673.0Q483 646 509.0 599.5Q535 553 535 494Q535 425 499.5 372.5Q464 320 391 299L543 0H443L302 287H297H166V0ZM166 364H294Q374 364 411.5 400.5Q449 437 449 494Q449 554 412.5 589.0Q376 624 293 624H166Z" transform="translate(387.60,198.00) scale(0.016000,-0.016000)" fill="#A45A84"/>
  <path d="M352 0Q284 0 245.0 33.0Q206 66 206 152V424H80V496H155Q206 496 214 546L228 623H290V496H488V424H290V152Q290 110 309.5 93.0Q329 76 377 76H488V0Z" transform="translate(409.20,198.00) scale(0.016000,-0.016000)" fill="#A45A84"/>
  <path d="M300 -12Q230 -12 176.0 20.0Q122 52 91.0 110.5Q60 169 60 248Q60 327 91.0 385.5Q122 444 176.0 476.0Q230 508 300 508Q370 508 424.0 476.0Q478 444 509.0 385.5Q540 327 540 248Q540 169 509.0 110.5Q478 52 424.0 20.0Q370 -12 300 -12ZM300 68Q343 68 378.0 87.0Q413 106 433.5 146.0Q454 186 454 248Q454 310 433.5 350.0Q413 390 378.0 409.0Q343 428 300 428Q258 428 223.0 409.0Q188 390 167.0 350.0Q146 310 146 248Q146 155 191.0 111.5Q236 68 300 68Z" transform="translate(420.00,198.00) scale(0.016000,-0.016000)" fill="#A45A84"/>
  <path d="M300 -12Q230 -12 176.0 20.0Q122 52 91.0 110.5Q60 169 60 248Q60 327 91.0 385.5Q122 444 176.0 476.0Q230 508 300 508Q370 508 424.0 476.0Q478 444 509.0 385.5Q540 327 540 248Q540 169 509.0 110.5Q478 52 424.0 20.0Q370 -12 300 -12ZM300 68Q343 68 378.0 87.0Q413 106 433.5 146.0Q454 186 454 248Q454 310 433.5 350.0Q413 390 378.0 409.0Q343 428 300 428Q258 428 223.0 409.0Q188 390 167.0 350.0Q146 310 146 248Q146 155 191.0 111.5Q236 68 300 68Z" transform="translate(430.80,198.00) scale(0.016000,-0.016000)" fill="#A45A84"/>
  <path d="M75 0V72H244V623Q244 648 219 648H93V720H239Q282 720 305.0 697.0Q328 674 328 631V72H497V0Z" transform="translate(441.60,198.00) scale(0.016000,-0.016000)" fill="#A45A84"/>
  <path d="M111 0V720H195V286L402 496H509L288 275V269L536 0H432L195 258V0Z" transform="translate(452.40,198.00) scale(0.016000,-0.016000)" fill="#A45A84"/>
  <path d="M294 584Q264 584 244.0 604.0Q224 624 224 652Q224 681 244.0 700.5Q264 720 294 720Q323 720 343.5 700.5Q364 681 364 652Q364 624 343.5 604.0Q323 584 294 584ZM100 0V72H258V399Q258 424 233 424H117V496H253Q342 496 342 407V72H500V0Z" transform="translate(463.20,198.00) scale(0.016000,-0.016000)" fill="#A45A84"/>
  <path d="M352 0Q284 0 245.0 33.0Q206 66 206 152V424H80V496H155Q206 496 214 546L228 623H290V496H488V424H290V152Q290 110 309.5 93.0Q329 76 377 76H488V0Z" transform="translate(474.00,198.00) scale(0.016000,-0.016000)" fill="#A45A84"/>
  <path d="M92 -220V-143H153Q191 -143 207.0 -128.0Q223 -113 223 -75V424H100V496H223V575Q223 652 260.0 686.0Q297 720 372 720H491V644H377Q340 644 323.5 628.5Q307 613 307 575V496H491V424H307V-75Q307 -152 270.0 -186.0Q233 -220 159 -220Z" transform="translate(495.60,198.00) scale(0.016000,-0.016000)" fill="#A45A84"/>
  <path d="M300 -12Q230 -12 176.0 20.0Q122 52 91.0 110.5Q60 169 60 248Q60 327 91.0 385.5Q122 444 176.0 476.0Q230 508 300 508Q370 508 424.0 476.0Q478 444 509.0 385.5Q540 327 540 248Q540 169 509.0 110.5Q478 52 424.0 20.0Q370 -12 300 -12ZM300 68Q343 68 378.0 87.0Q413 106 433.5 146.0Q454 186 454 248Q454 310 433.5 350.0Q413 390 378.0 409.0Q343 428 300 428Q258 428 223.0 409.0Q188 390 167.0 350.0Q146 310 146 248Q146 155 191.0 111.5Q236 68 300 68Z" transform="translate(506.40,198.00) scale(0.016000,-0.016000)" fill="#A45A84"/>
  <path d="M84 0V72H211V399Q211 424 187 424H97V496H218Q251 496 271.0 478.0Q291 460 291 425V404H295Q307 454 340.5 481.0Q374 508 434 508H525V419H422Q361 419 328.0 378.5Q295 338 295 275V72H451V0Z" transform="translate(517.20,198.00) scale(0.016000,-0.016000)" fill="#A45A84"/>
  <path d="M258 -12Q199 -12 160.0 9.0Q121 30 102.0 64.5Q83 99 83 140Q83 216 138.5 255.5Q194 295 287 295H423V305Q423 435 304 435Q256 435 223.5 414.0Q191 393 182 348H96Q101 398 129.5 434.0Q158 470 203.0 489.0Q248 508 304 508Q410 508 458.5 452.5Q507 397 507 305V0H435L428 77H421Q399 41 362.5 14.5Q326 -12 258 -12ZM273 62Q321 62 354.5 85.0Q388 108 405.5 146.0Q423 184 423 229H294Q226 229 198.5 206.0Q171 183 171 145Q171 106 197.0 84.0Q223 62 273 62Z" transform="translate(538.80,198.00) scale(0.016000,-0.016000)" fill="#A45A84"/>
  <path d="M78 -220V496H146L156 414H162Q181 454 223.0 481.0Q265 508 322 508Q382 508 430.5 478.0Q479 448 507.0 389.5Q535 331 535 247Q535 164 506.5 106.0Q478 48 428.5 18.0Q379 -12 315 -12Q258 -12 218.5 12.5Q179 37 162 70V-220ZM305 68Q368 68 409.0 112.5Q450 157 450 248Q450 339 409.0 383.5Q368 428 305 428Q242 428 201.0 383.5Q160 339 160 248Q160 157 201.0 112.5Q242 68 305 68Z" transform="translate(549.60,198.00) scale(0.016000,-0.016000)" fill="#A45A84"/>
  <path d="M78 -220V496H146L156 414H162Q181 454 223.0 481.0Q265 508 322 508Q382 508 430.5 478.0Q479 448 507.0 389.5Q535 331 535 247Q535 164 506.5 106.0Q478 48 428.5 18.0Q379 -12 315 -12Q258 -12 218.5 12.5Q179 37 162 70V-220ZM305 68Q368 68 409.0 112.5Q450 157 450 248Q450 339 409.0 383.5Q368 428 305 428Q242 428 201.0 383.5Q160 339 160 248Q160 157 201.0 112.5Q242 68 305 68Z" transform="translate(560.40,198.00) scale(0.016000,-0.016000)" fill="#A45A84"/>
  <path d="M84 0V72H211V399Q211 424 187 424H97V496H218Q251 496 271.0 478.0Q291 460 291 425V404H295Q307 454 340.5 481.0Q374 508 434 508H525V419H422Q361 419 328.0 378.5Q295 338 295 275V72H451V0Z" transform="translate(571.20,198.00) scale(0.016000,-0.016000)" fill="#A45A84"/>
  <path d="M305 -12Q235 -12 181.5 20.5Q128 53 97.0 111.5Q66 170 66 248Q66 326 96.5 384.5Q127 443 181.0 475.5Q235 508 307 508Q379 508 430.0 475.5Q481 443 508.0 390.0Q535 337 535 276Q535 265 534.5 254.0Q534 243 534 229H149Q152 174 174.5 137.5Q197 101 231.5 83.0Q266 65 305 65Q360 65 391.0 88.0Q422 111 438 152H521Q504 83 450.0 35.5Q396 -12 305 -12ZM305 433Q247 433 203.5 398.0Q160 363 150 300H452Q448 362 407.5 397.5Q367 433 305 433Z" transform="translate(582.00,198.00) scale(0.016000,-0.016000)" fill="#A45A84"/>
  <path d="M88 0V496H158L167 421H172Q192 457 235.0 482.5Q278 508 334 508Q425 508 470.5 454.0Q516 400 516 298V0H432V288Q432 354 403.0 391.5Q374 429 313 429Q254 429 213.0 388.5Q172 348 172 272V0Z" transform="translate(592.80,198.00) scale(0.016000,-0.016000)" fill="#A45A84"/>
  <path d="M352 0Q284 0 245.0 33.0Q206 66 206 152V424H80V496H155Q206 496 214 546L228 623H290V496H488V424H290V152Q290 110 309.5 93.0Q329 76 377 76H488V0Z" transform="translate(603.60,198.00) scale(0.016000,-0.016000)" fill="#A45A84"/>
  <path d="M294 584Q264 584 244.0 604.0Q224 624 224 652Q224 681 244.0 700.5Q264 720 294 720Q323 720 343.5 700.5Q364 681 364 652Q364 624 343.5 604.0Q323 584 294 584ZM100 0V72H258V399Q258 424 233 424H117V496H253Q342 496 342 407V72H500V0Z" transform="translate(614.40,198.00) scale(0.016000,-0.016000)" fill="#A45A84"/>
  <path d="M308 -12Q241 -12 188.5 19.0Q136 50 105.0 108.5Q74 167 74 248Q74 329 105.0 387.5Q136 446 189.5 477.0Q243 508 308 508Q400 508 455.0 462.0Q510 416 525 339H439Q427 380 393.0 404.5Q359 429 307 429Q269 429 235.0 409.0Q201 389 180.0 349.0Q159 309 159 248Q159 187 180.0 146.5Q201 106 235.0 86.0Q269 66 307 66Q362 66 394.5 91.0Q427 116 439 157H525Q506 78 450.5 33.0Q395 -12 308 -12Z" transform="translate(625.20,198.00) scale(0.016000,-0.016000)" fill="#A45A84"/>
  <path d="M305 -12Q235 -12 181.5 20.5Q128 53 97.0 111.5Q66 170 66 248Q66 326 96.5 384.5Q127 443 181.0 475.5Q235 508 307 508Q379 508 430.0 475.5Q481 443 508.0 390.0Q535 337 535 276Q535 265 534.5 254.0Q534 243 534 229H149Q152 174 174.5 137.5Q197 101 231.5 83.0Q266 65 305 65Q360 65 391.0 88.0Q422 111 438 152H521Q504 83 450.0 35.5Q396 -12 305 -12ZM305 433Q247 433 203.5 398.0Q160 363 150 300H452Q448 362 407.5 397.5Q367 433 305 433Z" transform="translate(636.00,198.00) scale(0.016000,-0.016000)" fill="#A45A84"/>
  <path d="M305 -12Q210 -12 151.5 32.5Q93 77 86 155H173Q179 114 213.5 88.0Q248 62 307 62Q363 62 390.5 86.0Q418 110 418 141Q418 183 385.0 198.5Q352 214 286 222Q207 231 155.0 265.0Q103 299 103 367Q103 428 154.0 468.0Q205 508 293 508Q380 508 430.0 468.5Q480 429 487 356H404Q401 392 369.5 413.5Q338 435 291 435Q242 435 215.0 416.5Q188 398 188 368Q188 338 218.5 318.5Q249 299 315 293Q367 287 410.0 273.0Q453 259 478.5 229.0Q504 199 504 145Q505 100 479.5 64.5Q454 29 409.0 8.5Q364 -12 305 -12Z" transform="translate(646.80,198.00) scale(0.016000,-0.016000)" fill="#A45A84"/>
  <path d="M83 0V720H167V421Q187 459 233.0 483.5Q279 508 334 508Q425 508 472.5 453.0Q520 398 520 299V0H436V288Q436 355 403.5 392.0Q371 429 313 429Q273 429 240.0 411.0Q207 393 187.0 358.0Q167 323 167 272V0Z" transform="translate(657.60,198.00) scale(0.016000,-0.016000)" fill="#A45A84"/>
  <path d="M294 584Q264 584 244.0 604.0Q224 624 224 652Q224 681 244.0 700.5Q264 720 294 720Q323 720 343.5 700.5Q364 681 364 652Q364 624 343.5 604.0Q323 584 294 584ZM100 0V72H258V399Q258 424 233 424H117V496H253Q342 496 342 407V72H500V0Z" transform="translate(668.40,198.00) scale(0.016000,-0.016000)" fill="#A45A84"/>
  <path d="M78 -220V496H146L156 414H162Q181 454 223.0 481.0Q265 508 322 508Q382 508 430.5 478.0Q479 448 507.0 389.5Q535 331 535 247Q535 164 506.5 106.0Q478 48 428.5 18.0Q379 -12 315 -12Q258 -12 218.5 12.5Q179 37 162 70V-220ZM305 68Q368 68 409.0 112.5Q450 157 450 248Q450 339 409.0 383.5Q368 428 305 428Q242 428 201.0 383.5Q160 339 160 248Q160 157 201.0 112.5Q242 68 305 68Z" transform="translate(679.20,198.00) scale(0.016000,-0.016000)" fill="#A45A84"/>
  <path d="M283 -12Q220 -12 170.5 18.0Q121 48 93.0 106.5Q65 165 65 249Q65 332 93.0 390.0Q121 448 170.5 478.0Q220 508 283 508Q342 508 380.5 485.0Q419 462 438 425V720H522V0H453L444 77H438Q418 36 379.0 12.0Q340 -12 283 -12ZM294 68Q357 68 398.0 112.5Q439 157 439 248Q439 339 398.0 383.5Q357 428 294 428Q231 428 190.5 383.5Q150 339 150 248Q150 157 190.5 112.5Q231 68 294 68Z" transform="translate(700.80,198.00) scale(0.016000,-0.016000)" fill="#A45A84"/>
  <path d="M258 -12Q199 -12 160.0 9.0Q121 30 102.0 64.5Q83 99 83 140Q83 216 138.5 255.5Q194 295 287 295H423V305Q423 435 304 435Q256 435 223.5 414.0Q191 393 182 348H96Q101 398 129.5 434.0Q158 470 203.0 489.0Q248 508 304 508Q410 508 458.5 452.5Q507 397 507 305V0H435L428 77H421Q399 41 362.5 14.5Q326 -12 258 -12ZM273 62Q321 62 354.5 85.0Q388 108 405.5 146.0Q423 184 423 229H294Q226 229 198.5 206.0Q171 183 171 145Q171 106 197.0 84.0Q223 62 273 62Z" transform="translate(711.60,198.00) scale(0.016000,-0.016000)" fill="#A45A84"/>
  <path d="M352 0Q284 0 245.0 33.0Q206 66 206 152V424H80V496H155Q206 496 214 546L228 623H290V496H488V424H290V152Q290 110 309.5 93.0Q329 76 377 76H488V0Z" transform="translate(722.40,198.00) scale(0.016000,-0.016000)" fill="#A45A84"/>
  <path d="M258 -12Q199 -12 160.0 9.0Q121 30 102.0 64.5Q83 99 83 140Q83 216 138.5 255.5Q194 295 287 295H423V305Q423 435 304 435Q256 435 223.5 414.0Q191 393 182 348H96Q101 398 129.5 434.0Q158 470 203.0 489.0Q248 508 304 508Q410 508 458.5 452.5Q507 397 507 305V0H435L428 77H421Q399 41 362.5 14.5Q326 -12 258 -12ZM273 62Q321 62 354.5 85.0Q388 108 405.5 146.0Q423 184 423 229H294Q226 229 198.5 206.0Q171 183 171 145Q171 106 197.0 84.0Q223 62 273 62Z" transform="translate(733.20,198.00) scale(0.016000,-0.016000)" fill="#A45A84"/>

  <g transform="translate(366, 214)">
    <rect width="56" height="22" rx="4" fill="#A45A84" opacity="0.15"/>
  </g>
  <path d="M251 0 33 496H129L300 92L472 496H567L348 0Z" transform="translate(380.00,229.00) scale(0.011000,-0.011000)" fill="#A45A84"/>
  <path d="M309 -12Q240 -12 185.5 13.5Q131 39 98.0 88.0Q65 137 62 208H148Q150 148 192.0 106.5Q234 65 309 65Q382 65 422.0 102.5Q462 140 462 205Q462 250 439.0 279.5Q416 309 377.5 323.5Q339 338 292 338H231V414H284Q352 414 392.5 443.0Q433 472 433 528Q433 575 400.5 605.0Q368 635 308 635Q250 635 214.0 602.5Q178 570 173 518H89Q91 575 119.0 618.5Q147 662 195.5 687.0Q244 712 308 712Q377 712 423.5 688.0Q470 664 494.0 623.5Q518 583 518 534Q518 482 486.0 442.5Q454 403 410 387V381Q469 363 508.0 320.0Q547 277 547 205Q547 144 518.5 95.0Q490 46 436.5 17.0Q383 -12 309 -12Z" transform="translate(386.60,229.00) scale(0.011000,-0.011000)" fill="#A45A84"/>
  <path d="M300 -2Q269 -2 247.0 19.0Q225 40 225 71Q225 101 247.0 122.0Q269 143 300 143Q331 143 353.0 122.0Q375 101 375 71Q375 40 353.0 19.0Q331 -2 300 -2Z" transform="translate(393.20,229.00) scale(0.011000,-0.011000)" fill="#A45A84"/>
  <path d="M74 0V66Q182 152 262.5 224.0Q343 296 387.0 363.0Q431 430 431 500Q431 563 395.5 599.5Q360 636 300 636Q254 636 222.0 616.0Q190 596 174.0 563.0Q158 530 158 492H75Q76 561 105.5 610.5Q135 660 185.5 686.0Q236 712 300 712Q403 712 460.0 655.0Q517 598 517 502Q517 439 490.0 381.5Q463 324 418.0 271.0Q373 218 317.0 169.0Q261 120 204 75H536V0Z" transform="translate(399.80,229.00) scale(0.011000,-0.011000)" fill="#A45A84"/>
  <path d="M300 -2Q269 -2 247.0 19.0Q225 40 225 71Q225 101 247.0 122.0Q269 143 300 143Q331 143 353.0 122.0Q375 101 375 71Q375 40 353.0 19.0Q331 -2 300 -2Z" transform="translate(406.40,229.00) scale(0.011000,-0.011000)" fill="#A45A84"/>
  <path d="M70 0V76H251V601L80 568V632L279 700H335V76H526V0Z" transform="translate(413.00,229.00) scale(0.011000,-0.011000)" fill="#A45A84"/>
</svg>